<svg xmlns="http://www.w3.org/2000/svg" viewBox="0 0 1080 608" width="1080" height="608">
<rect width="1080" height="608" fill="#0a0e27"/>
<g opacity="0.25" stroke="#1a2342" stroke-width="0.8">
<line x1="60" y1="0" x2="60" y2="608"/><line x1="120" y1="0" x2="120" y2="608"/>
<line x1="180" y1="0" x2="180" y2="608"/><line x1="240" y1="0" x2="240" y2="608"/>
<line x1="300" y1="0" x2="300" y2="608"/><line x1="360" y1="0" x2="360" y2="608"/>
<line x1="420" y1="0" x2="420" y2="608"/><line x1="480" y1="0" x2="480" y2="608"/>
<line x1="540" y1="0" x2="540" y2="608"/><line x1="600" y1="0" x2="600" y2="608"/>
<line x1="660" y1="0" x2="660" y2="608"/><line x1="720" y1="0" x2="720" y2="608"/>
<line x1="780" y1="0" x2="780" y2="608"/><line x1="840" y1="0" x2="840" y2="608"/>
<line x1="900" y1="0" x2="900" y2="608"/><line x1="960" y1="0" x2="960" y2="608"/>
<line x1="1020" y1="0" x2="1020" y2="608"/>
<line x1="0" y1="60" x2="1080" y2="60"/><line x1="0" y1="120" x2="1080" y2="120"/>
<line x1="0" y1="180" x2="1080" y2="180"/><line x1="0" y1="240" x2="1080" y2="240"/>
<line x1="0" y1="300" x2="1080" y2="300"/><line x1="0" y1="360" x2="1080" y2="360"/>
<line x1="0" y1="420" x2="1080" y2="420"/><line x1="0" y1="480" x2="1080" y2="480"/>
<line x1="0" y1="540" x2="1080" y2="540"/>
</g>
<line x1="0" y1="400" x2="1080" y2="400" stroke="#ff2a6d" stroke-width="1" opacity="0.6"/>
<g stroke="#05d9e8" stroke-width="0.8" opacity="0.4" fill="none">
<line x1="0" y1="608" x2="540" y2="400"/>
<line x1="120" y1="608" x2="540" y2="400"/>
<line x1="240" y1="608" x2="540" y2="400"/>
<line x1="360" y1="608" x2="540" y2="400"/>
<line x1="480" y1="608" x2="540" y2="400"/>
<line x1="540" y1="608" x2="540" y2="400"/>
<line x1="600" y1="608" x2="540" y2="400"/>
<line x1="720" y1="608" x2="540" y2="400"/>
<line x1="840" y1="608" x2="540" y2="400"/>
<line x1="960" y1="608" x2="540" y2="400"/>
<line x1="1080" y1="608" x2="540" y2="400"/>
</g>
<path d="M 30 30 L 30 80 M 30 30 L 80 30" stroke="#ff2a6d" stroke-width="4" fill="none"/>
<path d="M 1050 30 L 1050 80 M 1050 30 L 1000 30" stroke="#ff2a6d" stroke-width="4" fill="none"/>
<path d="M 30 578 L 30 528 M 30 578 L 80 578" stroke="#05d9e8" stroke-width="4" fill="none"/>
<path d="M 1050 578 L 1050 528 M 1050 578 L 1000 578" stroke="#05d9e8" stroke-width="4" fill="none"/>
<text x="540" y="250" text-anchor="middle" font-family="'Helvetica Neue',Impact,Arial,sans-serif" font-size="130" font-weight="900" fill="#ffffff" letter-spacing="14">YTCODES</text>
<text x="540" y="310" text-anchor="middle" font-family="'SF Mono','Consolas',monospace" font-size="24" font-weight="400" fill="#ff2a6d" letter-spacing="14">DATA AUTOMATION // VBA + PYTHON</text>
<text x="540" y="510" text-anchor="middle" font-family="'SF Mono','Consolas',monospace" font-size="16" font-weight="400" fill="#05d9e8" letter-spacing="8">SALT LAKE CITY, UT  //  REMOTE US</text>
</svg>
