<svg xmlns="http://www.w3.org/2000/svg" viewBox="0 0 720 720" width="720" height="720">
<rect width="720" height="720" fill="#0a0e27"/>
<g opacity="0.08" stroke="#e6e8ff" stroke-width="1.2">
<line x1="0" y1="60" x2="720" y2="60"/><line x1="0" y1="120" x2="720" y2="120"/>
<line x1="0" y1="180" x2="720" y2="180"/><line x1="0" y1="240" x2="720" y2="240"/>
<line x1="0" y1="300" x2="720" y2="300"/><line x1="0" y1="360" x2="720" y2="360"/>
<line x1="0" y1="420" x2="720" y2="420"/><line x1="0" y1="480" x2="720" y2="480"/>
<line x1="0" y1="540" x2="720" y2="540"/><line x1="0" y1="600" x2="720" y2="600"/>
<line x1="0" y1="660" x2="720" y2="660"/>
</g>
<path d="M 175 335 L 95 412 L 175 489" stroke="#05d9e8" stroke-width="22" fill="none" stroke-linecap="round" stroke-linejoin="round"/>
<text x="210" y="440" font-family="'DejaVu Sans Mono',monospace" font-size="180" font-weight="700" fill="#ffffff">YT</text>
<path d="M 470 489 L 535 335" stroke="#05d9e8" stroke-width="22" fill="none" stroke-linecap="round"/>
<path d="M 545 335 L 625 412 L 545 489" stroke="#05d9e8" stroke-width="22" fill="none" stroke-linecap="round" stroke-linejoin="round"/>
<text x="360" y="555" text-anchor="middle" font-family="'DejaVu Sans Mono',monospace" font-size="28" font-weight="400" fill="#ff2a6d" letter-spacing="14">DATA AUTOMATION</text>
</svg>
