<svg xmlns="http://www.w3.org/2000/svg" viewBox="0 0 720 720" width="720" height="720">
<rect width="720" height="720" fill="#0a0e27"/>
<g opacity="0.08" stroke="#e6e8ff" stroke-width="1.2">
<line x1="0" y1="60" x2="720" y2="60"/><line x1="0" y1="120" x2="720" y2="120"/>
<line x1="0" y1="180" x2="720" y2="180"/><line x1="0" y1="240" x2="720" y2="240"/>
<line x1="0" y1="300" x2="720" y2="300"/><line x1="0" y1="360" x2="720" y2="360"/>
<line x1="0" y1="420" x2="720" y2="420"/><line x1="0" y1="480" x2="720" y2="480"/>
<line x1="0" y1="540" x2="720" y2="540"/><line x1="0" y1="600" x2="720" y2="600"/>
<line x1="0" y1="660" x2="720" y2="660"/>
</g>
<text x="340" y="470" text-anchor="middle" font-family="'Helvetica Neue',Impact,Arial,sans-serif" font-size="380" font-weight="900" fill="#05d9e8">YT</text>
<text x="380" y="470" text-anchor="middle" font-family="'Helvetica Neue',Impact,Arial,sans-serif" font-size="380" font-weight="900" fill="#ff2a6d" opacity="0.9">YT</text>
<text x="360" y="470" text-anchor="middle" font-family="'Helvetica Neue',Impact,Arial,sans-serif" font-size="380" font-weight="900" fill="#ffffff">YT</text>
<rect x="40" y="330" width="640" height="6" fill="#0a0e27" opacity="0.9"/>
<rect x="40" y="400" width="640" height="3" fill="#0a0e27" opacity="0.7"/>
<text x="360" y="600" text-anchor="middle" font-family="'SF Mono','Consolas',monospace" font-size="36" font-weight="400" fill="#e6e8ff" letter-spacing="20">YTCODES</text>
</svg>
